<svg width="83" height="65" viewBox="0 0 83 65" fill="none" xmlns="http://www.w3.org/2000/svg">
<g clip-path="url(#clip0_697_3133)">
<path d="M60.1566 41.7934L49.4101 36.2405C49.2481 36.1565 49.1259 36.0116 49.0704 35.8375C49.0148 35.6633 49.0305 35.4742 49.1139 35.3116L49.7786 34.0194C49.8624 33.857 50.007 33.7346 50.1808 33.6789C50.3545 33.6232 50.5432 33.6389 50.7054 33.7225L61.452 39.2755C61.614 39.3594 61.7362 39.5043 61.7917 39.6785C61.8473 39.8526 61.8316 40.0417 61.7482 40.2043L61.0834 41.4965C61.0422 41.5771 60.9854 41.6487 60.9164 41.7072C60.8474 41.7656 60.7674 41.8098 60.6813 41.837C60.6132 41.859 60.5421 41.8702 60.4706 41.8702C60.3613 41.8701 60.2536 41.8438 60.1566 41.7934Z" fill="#388A98"/>
<path d="M56.8803 36.5988C56.9651 36.5657 57.0557 36.5499 57.1468 36.5522C57.2378 36.5546 57.3274 36.5752 57.4104 36.6127L60.9322 38.5643C61.3176 38.7777 61.6065 39.1313 61.7392 39.5521C61.8719 39.9728 61.8382 40.4286 61.6451 40.8252L61.601 40.8037L61.6451 40.8252C61.4607 41.2042 61.1439 41.5022 60.7549 41.6628C60.3658 41.8233 59.9315 41.8352 59.5343 41.6962L55.7149 40.3583C55.6322 40.3217 55.5575 40.2691 55.4951 40.2036C55.4327 40.1381 55.3838 40.0608 55.3511 39.9763C55.3185 39.8918 55.3028 39.8017 55.305 39.7111C55.3072 39.6205 55.3271 39.5313 55.3637 39.4484L56.4993 36.963C56.5191 36.9181 56.5435 36.8753 56.5723 36.8355C56.65 36.7285 56.757 36.6463 56.8803 36.5988Z" fill="#2F2E41"/>
<path d="M64.9834 36.0027C67.8886 36.0027 70.2437 33.6423 70.2437 30.7307C70.2437 27.8191 67.8886 25.4587 64.9834 25.4587C62.0782 25.4587 59.7231 27.8191 59.7231 30.7307C59.7231 33.6423 62.0782 36.0027 64.9834 36.0027Z" fill="#388A98"/>
<path d="M64.338 63.5179V51.4004C64.3382 51.2175 64.4107 51.0423 64.5397 50.913C64.6687 50.7837 64.8436 50.711 65.026 50.7108H66.4766C66.659 50.711 66.8339 50.7837 66.9629 50.913C67.0919 51.0423 67.1644 51.2175 67.1646 51.4004V63.5179C67.1644 63.7008 67.0919 63.876 66.9629 64.0053C66.8339 64.1346 66.659 64.2073 66.4766 64.2075H65.026C64.8436 64.2073 64.6687 64.1346 64.5397 64.0053C64.4107 63.876 64.3382 63.7008 64.338 63.5179Z" fill="#388A98"/>
<path d="M61.1927 63.5179V51.4004C61.1929 51.2175 61.2655 51.0423 61.3945 50.913C61.5234 50.7837 61.6983 50.711 61.8807 50.7108H63.3314C63.5138 50.711 63.6887 50.7837 63.8177 50.913C63.9466 51.0423 64.0192 51.2175 64.0194 51.4004V63.5179C64.0192 63.7008 63.9466 63.876 63.8177 64.0053C63.6887 64.1346 63.5138 64.2073 63.3314 64.2075H61.8807C61.6983 64.2073 61.5234 64.1346 61.3945 64.0053C61.2655 63.876 61.1929 63.7008 61.1927 63.5179Z" fill="#388A98"/>
<path d="M65.0939 32.6846L65.0994 32.4876C64.7337 32.4774 64.4113 32.4544 64.169 32.277C64.1003 32.2239 64.0439 32.1565 64.0035 32.0796C63.9631 32.0026 63.9397 31.9178 63.9349 31.831C63.9307 31.7779 63.9387 31.7246 63.9583 31.6751C63.978 31.6257 64.0088 31.5814 64.0483 31.5458C64.2091 31.4097 64.4678 31.4538 64.6565 31.5405L64.8191 31.6152L64.5072 29.3308L64.3124 29.3576L64.5777 31.3007C64.3215 31.2252 64.084 31.2577 63.9214 31.3954C63.8589 31.45 63.8099 31.5184 63.7782 31.5952C63.7465 31.6719 63.7329 31.755 63.7385 31.8379C63.7442 31.9546 63.7754 32.0686 63.8297 32.1719C63.884 32.2753 63.9603 32.3655 64.0531 32.4362C64.3643 32.6641 64.7689 32.6755 65.0939 32.6846Z" fill="#2F2E41"/>
<path d="M63.3493 29.5251H62.2906V29.7222H63.3493V29.5251Z" fill="#2F2E41"/>
<path d="M66.6911 29.5251H65.6324V29.7222H66.6911V29.5251Z" fill="#2F2E41"/>
<path d="M70.0171 53.4055L68.1978 41.4259C68.1705 41.2451 68.2159 41.0609 68.324 40.9137C68.4321 40.7664 68.5941 40.6682 68.7744 40.6405L70.2086 40.4217C70.3889 40.3944 70.5727 40.4399 70.7197 40.5483C70.8666 40.6566 70.9646 40.8189 70.9923 40.9996L72.8116 52.9792C72.8389 53.16 72.7935 53.3442 72.6853 53.4915C72.5772 53.6387 72.4153 53.737 72.235 53.7647L70.8008 53.9834C70.7115 53.9971 70.6204 53.9931 70.5326 53.9714C70.4448 53.9498 70.3622 53.911 70.2894 53.8574C70.2166 53.8037 70.1551 53.7361 70.1084 53.6586C70.0617 53.5811 70.0307 53.4951 70.0171 53.4055V53.4055Z" fill="#388A98"/>
<path d="M68.6111 45.7164C68.5345 45.667 68.4684 45.6029 68.4169 45.5277C68.3653 45.4524 68.3292 45.3676 68.3108 45.2783L67.8175 41.2755C67.7633 40.8376 67.8791 40.3955 68.1409 40.0407C68.4026 39.6859 68.7904 39.4454 69.2241 39.369L69.2326 39.4174L69.2241 39.369C69.6385 39.2959 70.0652 39.3777 70.4234 39.5989C70.7816 39.8201 71.0463 40.1654 71.1675 40.5692L72.3312 44.4527C72.3502 44.5413 72.3517 44.6328 72.3354 44.7219C72.3192 44.811 72.2856 44.8961 72.2365 44.9722C72.1874 45.0483 72.1239 45.114 72.0495 45.1654C71.9751 45.2169 71.8913 45.2532 71.8029 45.2722L69.129 45.8114C69.081 45.8218 69.0321 45.827 68.9831 45.8271C68.851 45.827 68.7218 45.7885 68.6111 45.7164Z" fill="#2F2E41"/>
<path d="M68.7523 54.3753H54.6949C54.5523 54.3753 54.4121 54.3387 54.2876 54.269C54.1632 54.1994 54.0585 54.099 53.9837 53.9773C53.9089 53.8557 53.8664 53.7169 53.8602 53.5742C53.8541 53.4314 53.8844 53.2894 53.9485 53.1618L60.745 39.6161C61.2172 38.6749 61.9925 37.9209 62.9453 37.476C63.8981 37.0311 64.9729 36.9214 65.9956 37.1647C67.0184 37.4079 67.9294 37.9898 68.5812 38.8162C69.2331 39.6427 69.5877 40.6653 69.5877 41.7188V53.538C69.5875 53.76 69.4994 53.9728 69.3427 54.1298C69.1861 54.2867 68.9738 54.375 68.7523 54.3753Z" fill="#2F2E41"/>
<path d="M65.1698 26.3812C64.0929 26.6221 63.1847 27.3255 62.102 27.5443C61.6086 27.6439 61.0652 27.6398 60.6121 27.3964C60.2765 27.2138 60.0199 26.9136 59.8912 26.5533C59.7639 26.1847 59.7312 25.7901 59.7959 25.4055C59.8606 25.021 60.0207 24.6589 60.2615 24.3525C60.8692 23.6069 61.8383 23.2633 62.768 23.1665C64.6286 22.9727 66.5398 23.5871 68.0542 24.6576C69.6179 25.7628 70.8174 27.4224 71.2198 29.3111C71.4349 30.3207 71.4137 31.3948 71.0464 32.367C70.6932 33.2974 69.9979 34.0568 69.1034 34.4893C68.8899 34.5926 68.6673 34.6756 68.4384 34.7375C68.4019 34.7489 68.3713 34.7742 68.353 34.8078C68.3347 34.8415 68.3301 34.8809 68.3403 34.9179C68.3505 34.9548 68.3745 34.9864 68.4075 35.0059C68.4404 35.0254 68.4796 35.0313 68.5168 35.0224C69.5226 34.7472 70.3903 34.1068 70.9511 33.2258C71.5272 32.3023 71.7204 31.1717 71.6317 30.0973C71.4601 28.0189 70.3197 26.1086 68.7255 24.8008C67.1939 23.5445 65.2127 22.78 63.2206 22.8408C62.2216 22.8712 61.1846 23.1254 60.4077 23.7852C60.0729 24.0689 59.8138 24.4316 59.6535 24.8406C59.4932 25.2496 59.4369 25.6921 59.4895 26.1283C59.5342 26.5365 59.6959 26.9229 59.955 27.2408C60.2719 27.5997 60.711 27.827 61.1864 27.8782C62.3643 28.0319 63.3857 27.3627 64.4265 26.9326C64.6923 26.8204 64.9672 26.7312 65.2482 26.6661C65.4333 26.6247 65.3549 26.3397 65.1698 26.3812Z" fill="#2F2E41"/>
<path d="M68.1284 24.2927C67.7054 22.706 68.8091 21.0546 70.3087 20.5591C71.1693 20.2906 72.0924 20.3009 72.9468 20.5886C73.7797 20.8711 74.5277 21.3605 75.1208 22.0111C76.4353 23.4127 77.0176 25.3043 77.2901 27.1694C77.5714 29.0952 77.4127 31.2043 78.3959 32.9542C78.8035 33.6797 79.4085 34.315 80.1903 34.6274C80.9196 34.9189 81.7934 34.9202 82.4921 34.5414C82.6603 34.4492 82.8157 34.3354 82.9546 34.2029C83.0929 34.0721 82.8841 33.8634 82.7461 33.9939C82.161 34.5472 81.2889 34.6516 80.5369 34.4344C79.7167 34.1976 79.0853 33.5658 78.6693 32.8383C78.1882 31.997 77.9878 31.0354 77.8786 30.0812C77.7593 29.0397 77.7134 27.9925 77.5541 26.9552C77.2668 25.0842 76.6461 23.2062 75.3293 21.8021C74.727 21.1464 73.976 20.6457 73.1399 20.3422C72.2791 20.0333 71.3464 19.9861 70.4588 20.2065C69.6522 20.4159 68.9411 20.8952 68.4433 21.5649C67.9596 22.2006 67.7136 22.9861 67.7482 23.7848C67.7608 23.983 67.7929 24.1794 67.844 24.3712C67.8555 24.4078 67.8806 24.4385 67.9142 24.4568C67.9478 24.4752 67.9872 24.4797 68.0241 24.4696C68.0609 24.4594 68.0924 24.4352 68.1119 24.4022C68.1313 24.3692 68.1372 24.3299 68.1284 24.2926L68.1284 24.2927Z" fill="#2F2E41"/>
<path d="M10.2475 37.7278H1.67089C1.2279 37.7273 0.803188 37.5507 0.489943 37.2368C0.176698 36.9228 0.000498699 36.4972 0 36.0532V1.6746C0.000498699 1.23062 0.176698 0.804973 0.489943 0.491032C0.803188 0.177092 1.2279 0.000499806 1.67089 0H24.9337L29.1915 3.81004V10.7372H28.9949V3.89825L24.8587 0.197012H1.67089C1.28001 0.197455 0.905272 0.353272 0.62888 0.630278C0.352488 0.907283 0.197018 1.28286 0.196575 1.6746V36.0532C0.197018 36.4449 0.352488 36.8205 0.62888 37.0975C0.905272 37.3745 1.28001 37.5303 1.67089 37.5308H10.2475V37.7278Z" fill="#949292"/>
<path d="M29.0932 3.94024H26.4394C25.9964 3.93974 25.5717 3.76315 25.2584 3.44921C24.9452 3.13527 24.769 2.70962 24.7685 2.26564V0.098506C24.7685 0.0723806 24.7788 0.0473251 24.7973 0.0288517C24.8157 0.0103782 24.8407 0 24.8668 0C24.8928 0 24.9178 0.0103782 24.9363 0.0288517C24.9547 0.0473251 24.9651 0.0723806 24.9651 0.098506V2.26564C24.9655 2.65738 25.121 3.03296 25.3974 3.30996C25.6738 3.58697 26.0485 3.74279 26.4394 3.74323H29.0932C29.1192 3.74323 29.1442 3.75361 29.1627 3.77208C29.1811 3.79055 29.1914 3.81561 29.1914 3.84173C29.1914 3.86786 29.1811 3.89292 29.1627 3.91139C29.1442 3.92986 29.1192 3.94024 29.0932 3.94024Z" fill="#949292"/>
<path d="M25.8045 8.91479H3.39487C3.18633 8.91479 2.98633 8.99782 2.83887 9.14561C2.69141 9.2934 2.60857 9.49384 2.60857 9.70284C2.60857 9.91185 2.69141 10.1123 2.83887 10.2601C2.98633 10.4079 3.18633 10.4909 3.39487 10.4909H25.8045C26.013 10.4909 26.213 10.4079 26.3605 10.2601C26.5079 10.1123 26.5908 9.91185 26.5908 9.70284C26.5908 9.49384 26.5079 9.2934 26.3605 9.14561C26.213 8.99782 26.013 8.91479 25.8045 8.91479Z" fill="#CBCACA"/>
<path d="M14.5014 5.56555H3.39487C3.18633 5.56555 2.98633 5.64858 2.83887 5.79637C2.69141 5.94415 2.60857 6.1446 2.60857 6.3536C2.60857 6.5626 2.69141 6.76305 2.83887 6.91083C2.98633 7.05862 3.18633 7.14165 3.39487 7.14165H14.5014C14.7099 7.14165 14.9099 7.05862 15.0574 6.91083C15.2048 6.76305 15.2877 6.5626 15.2877 6.3536C15.2877 6.1446 15.2048 5.94415 15.0574 5.79637C14.9099 5.64858 14.7099 5.56555 14.5014 5.56555Z" fill="#CBCACA"/>
<path d="M3.39487 15.5146C3.18633 15.5146 2.98633 15.5977 2.83887 15.7455C2.69141 15.8933 2.60857 16.0937 2.60857 16.3027C2.60857 16.5117 2.69141 16.7121 2.83887 16.8599C2.98633 17.0077 3.18633 17.0907 3.39487 17.0907H10.4185V15.5146H3.39487Z" fill="#CBCACA"/>
<path d="M3.39487 12.1655C3.29161 12.1655 3.18936 12.1859 3.09396 12.2255C2.99857 12.2651 2.91188 12.3232 2.83887 12.3963C2.76585 12.4695 2.70794 12.5564 2.66842 12.652C2.6289 12.7476 2.60857 12.8501 2.60857 12.9536C2.60857 13.0571 2.6289 13.1595 2.66842 13.2551C2.70794 13.3508 2.76585 13.4376 2.83887 13.5108C2.91188 13.584 2.99857 13.642 3.09396 13.6816C3.18936 13.7212 3.29161 13.7416 3.39487 13.7416H10.4185V12.1655H3.39487Z" fill="#CBCACA"/>
<path d="M10.4676 32.2115H4.17329C3.74333 32.211 3.33111 32.0396 3.02708 31.7349C2.72305 31.4302 2.55203 31.0171 2.55154 30.5861V22.3116C2.55203 21.8807 2.72305 21.4676 3.02708 21.1629C3.33111 20.8582 3.74333 20.6868 4.17329 20.6863H10.4676V32.2115Z" fill="#CBCACA"/>
<path d="M20.6168 48.3172H12.0402C11.5973 48.3167 11.1725 48.1401 10.8593 47.8261C10.5461 47.5122 10.3699 47.0865 10.3694 46.6425V12.264C10.3699 11.82 10.5461 11.3943 10.8593 11.0804C11.1725 10.7664 11.5973 10.5899 12.0402 10.5894H35.3031L39.5608 14.3994V20.9325H39.3642V14.4876L35.2281 10.7864H12.0402C11.6494 10.7868 11.2746 10.9426 10.9982 11.2196C10.7218 11.4966 10.5664 11.8722 10.5659 12.264V46.6425C10.5664 47.0343 10.7218 47.4099 10.9982 47.6869C11.2746 47.9639 11.6494 48.1197 12.0402 48.1201H20.6168V48.3172Z" fill="#949292"/>
<path d="M39.4625 14.5296H36.8087C36.3657 14.5291 35.941 14.3525 35.6278 14.0386C35.3145 13.7246 35.1383 13.299 35.1378 12.855V10.6879C35.1378 10.6617 35.1482 10.6367 35.1666 10.6182C35.1851 10.5997 35.2101 10.5894 35.2361 10.5894C35.2622 10.5894 35.2872 10.5997 35.3056 10.6182C35.3241 10.6367 35.3344 10.6617 35.3344 10.6879V12.855C35.3349 13.2467 35.4903 13.6223 35.7667 13.8993C36.0431 14.1763 36.4179 14.3321 36.8087 14.3326H39.4625C39.4886 14.3326 39.5136 14.343 39.532 14.3614C39.5504 14.3799 39.5608 14.405 39.5608 14.4311C39.5608 14.4572 39.5504 14.4823 39.532 14.5007C39.5136 14.5192 39.4886 14.5296 39.4625 14.5296Z" fill="#949292"/>
<path d="M36.1738 19.5042H13.7642C13.5557 19.5042 13.3557 19.5872 13.2082 19.735C13.0607 19.8828 12.9779 20.0832 12.9779 20.2922C12.9779 20.5012 13.0607 20.7016 13.2082 20.8494C13.3557 20.9972 13.5557 21.0802 13.7642 21.0802H36.1738C36.3823 21.0802 36.5823 20.9972 36.7298 20.8494C36.8773 20.7016 36.9601 20.5012 36.9601 20.2922C36.9601 20.0832 36.8773 19.8828 36.7298 19.735C36.5823 19.5872 36.3823 19.5042 36.1738 19.5042Z" fill="#E6E6E6"/>
<path d="M24.8707 16.155H13.7642C13.5557 16.155 13.3557 16.2381 13.2082 16.3858C13.0607 16.5336 12.9779 16.7341 12.9779 16.9431C12.9779 17.1521 13.0607 17.3525 13.2082 17.5003C13.3557 17.6481 13.5557 17.7311 13.7642 17.7311H24.8707C25.0793 17.7311 25.2793 17.6481 25.4267 17.5003C25.5742 17.3525 25.657 17.1521 25.657 16.9431C25.657 16.7341 25.5742 16.5336 25.4267 16.3858C25.2793 16.2381 25.0793 16.155 24.8707 16.155Z" fill="#E6E6E6"/>
<path d="M36.1738 19.5042H13.7642C13.5557 19.5042 13.3557 19.5872 13.2082 19.735C13.0607 19.8828 12.9779 20.0832 12.9779 20.2922C12.9779 20.5012 13.0607 20.7016 13.2082 20.8494C13.3557 20.9972 13.5557 21.0802 13.7642 21.0802H36.1738C36.3823 21.0802 36.5823 20.9972 36.7298 20.8494C36.8773 20.7016 36.9601 20.5012 36.9601 20.2922C36.9601 20.0832 36.8773 19.8828 36.7298 19.735C36.5823 19.5872 36.3823 19.5042 36.1738 19.5042Z" fill="#CBCACA"/>
<path d="M24.8707 16.155H13.7642C13.5557 16.155 13.3557 16.2381 13.2082 16.3858C13.0607 16.5336 12.9779 16.7341 12.9779 16.9431C12.9779 17.1521 13.0607 17.3525 13.2082 17.5003C13.3557 17.6481 13.5557 17.7311 13.7642 17.7311H24.8707C25.0793 17.7311 25.2793 17.6481 25.4267 17.5003C25.5742 17.3525 25.657 17.1521 25.657 16.9431C25.657 16.7341 25.5742 16.5336 25.4267 16.3858C25.2793 16.2381 25.0793 16.155 24.8707 16.155Z" fill="#CBCACA"/>
<path d="M13.7642 26.1041C13.5557 26.1041 13.3557 26.1872 13.2082 26.3349C13.0607 26.4827 12.9779 26.6832 12.9779 26.8922C12.9779 27.1012 13.0607 27.3016 13.2082 27.4494C13.3557 27.5972 13.5557 27.6802 13.7642 27.6802H20.7878V26.1041H13.7642Z" fill="#E6E6E6"/>
<path d="M13.7642 22.7549C13.5557 22.7549 13.3557 22.8379 13.2082 22.9857C13.0607 23.1335 12.9779 23.3339 12.9779 23.5429C12.9779 23.7519 13.0607 23.9524 13.2082 24.1002C13.3557 24.248 13.5557 24.331 13.7642 24.331H20.7878V22.7549H13.7642Z" fill="#E6E6E6"/>
<path d="M13.7642 26.1041C13.5557 26.1041 13.3557 26.1872 13.2082 26.3349C13.0607 26.4827 12.9779 26.6832 12.9779 26.8922C12.9779 27.1012 13.0607 27.3016 13.2082 27.4494C13.3557 27.5972 13.5557 27.6802 13.7642 27.6802H20.7878V26.1041H13.7642Z" fill="#CBCACA"/>
<path d="M13.7642 22.7549C13.5557 22.7549 13.3557 22.8379 13.2082 22.9857C13.0607 23.1335 12.9779 23.3339 12.9779 23.5429C12.9779 23.7519 13.0607 23.9524 13.2082 24.1002C13.3557 24.248 13.5557 24.331 13.7642 24.331H20.7878V22.7549H13.7642Z" fill="#CBCACA"/>
<path d="M20.837 42.8008H14.5426C14.1127 42.8004 13.7005 42.629 13.3964 42.3242C13.0924 42.0195 12.9214 41.6064 12.9209 41.1755V32.901C12.9214 32.4701 13.0924 32.0569 13.3964 31.7522C13.7005 31.4475 14.1127 31.2761 14.5426 31.2756H20.837V42.8008Z" fill="#CBCACA"/>
<path d="M21.3914 21.2773C21.1471 21.4267 20.9452 21.6366 20.8051 21.8867C20.665 22.1368 20.5914 22.4188 20.5913 22.7056V22.9519H20.7879V22.7056C20.7883 22.3798 20.8959 22.0633 21.094 21.8051C21.2921 21.5468 21.5697 21.3613 21.8838 21.2773H21.3914ZM45.5249 21.031H22.2622C21.8192 21.0315 21.3945 21.2081 21.0812 21.5221C20.768 21.836 20.5918 22.2616 20.5913 22.7056V57.0842C20.5919 57.5281 20.7681 57.9537 21.0814 58.2676C21.3946 58.5815 21.8192 58.7582 22.2622 58.7588H48.1118C48.5548 58.7582 48.9794 58.5815 49.2926 58.2676C49.6059 57.9537 49.7821 57.5281 49.7827 57.0842V24.8412L45.5249 21.031ZM49.5862 57.0842C49.5857 57.4759 49.4302 57.8515 49.1538 58.1285C48.8774 58.4055 48.5027 58.5613 48.1118 58.5618H22.2622C21.8713 58.5613 21.4966 58.4055 21.2202 58.1285C20.9438 57.8515 20.7883 57.4759 20.7879 57.0842V22.7056C20.7883 22.3798 20.8959 22.0633 21.094 21.8051C21.2921 21.5468 21.5697 21.3613 21.8838 21.2773C22.0072 21.2443 22.1344 21.2277 22.2622 21.228H45.4502L49.5862 24.9289V57.0842ZM21.3914 21.2773C21.1471 21.4267 20.9452 21.6366 20.8051 21.8867C20.665 22.1368 20.5914 22.4188 20.5913 22.7056V22.9519H20.7879V22.7056C20.7883 22.3798 20.8959 22.0633 21.094 21.8051C21.2921 21.5468 21.5697 21.3613 21.8838 21.2773H21.3914Z" fill="#3F3D56"/>
<path d="M49.6844 24.9712H47.0307C46.5877 24.9707 46.163 24.7942 45.8497 24.4802C45.5365 24.1663 45.3603 23.7406 45.3598 23.2966V21.1295C45.3598 21.1034 45.3701 21.0783 45.3886 21.0599C45.407 21.0414 45.432 21.031 45.4581 21.031C45.4841 21.031 45.5091 21.0414 45.5276 21.0599C45.546 21.0783 45.5563 21.1034 45.5563 21.1295V23.2966C45.5568 23.6884 45.7123 24.064 45.9887 24.341C46.265 24.618 46.6398 24.7738 47.0307 24.7742H49.6844C49.7105 24.7742 49.7355 24.7846 49.7539 24.8031C49.7724 24.8216 49.7827 24.8466 49.7827 24.8727C49.7827 24.8989 49.7724 24.9239 49.7539 24.9424C49.7355 24.9609 49.7105 24.9712 49.6844 24.9712Z" fill="#3F3D56"/>
<path d="M46.3958 31.5219H23.9863C23.7777 31.5219 23.5777 31.4389 23.4303 31.2911C23.2828 31.1433 23.2 30.9429 23.2 30.7338C23.2 30.5248 23.2828 30.3244 23.4303 30.1766C23.5777 30.0288 23.7777 29.9458 23.9863 29.9458H46.3958C46.6044 29.9458 46.8044 30.0288 46.9518 30.1766C47.0993 30.3244 47.1821 30.5248 47.1821 30.7338C47.1821 30.9429 47.0993 31.1433 46.9518 31.2911C46.8044 31.4389 46.6044 31.5219 46.3958 31.5219Z" fill="#ABAAAA"/>
<path d="M35.0928 28.1727H23.9863C23.7777 28.1727 23.5777 28.0896 23.4303 27.9418C23.2828 27.7941 23.2 27.5936 23.2 27.3846C23.2 27.1756 23.2828 26.9752 23.4303 26.8274C23.5777 26.6796 23.7777 26.5966 23.9863 26.5966H35.0928C35.3013 26.5966 35.5013 26.6796 35.6488 26.8274C35.7962 26.9752 35.8791 27.1756 35.8791 27.3846C35.8791 27.5936 35.7962 27.7941 35.6488 27.9418C35.5013 28.0896 35.3013 28.1727 35.0928 28.1727Z" fill="#ABAAAA"/>
<path d="M46.3958 38.1219H23.9863C23.7777 38.1219 23.5777 38.0388 23.4303 37.8911C23.2828 37.7433 23.2 37.5428 23.2 37.3338C23.2 37.1248 23.2828 36.9244 23.4303 36.7766C23.5777 36.6288 23.7777 36.5458 23.9863 36.5458H46.3958C46.6044 36.5458 46.8044 36.6288 46.9518 36.7766C47.0993 36.9244 47.1821 37.1248 47.1821 37.3338C47.1821 37.5428 47.0993 37.7433 46.9518 37.8911C46.8044 38.0388 46.6044 38.1219 46.3958 38.1219Z" fill="#ABAAAA"/>
<path d="M35.0928 34.7726H23.9863C23.7777 34.7726 23.5777 34.6896 23.4303 34.5418C23.2828 34.394 23.2 34.1936 23.2 33.9846C23.2 33.7756 23.2828 33.5751 23.4303 33.4273C23.5777 33.2796 23.7777 33.1965 23.9863 33.1965H35.0928C35.3013 33.1965 35.5013 33.2796 35.6488 33.4273C35.7962 33.5751 35.8791 33.7756 35.8791 33.9846C35.8791 34.1936 35.7962 34.394 35.6488 34.5418C35.5013 34.6896 35.3013 34.7726 35.0928 34.7726Z" fill="#ABAAAA"/>
<path d="M45.6014 53.2425H24.7644C24.3345 53.242 23.9223 53.0706 23.6182 52.7659C23.3142 52.4612 23.1432 52.0481 23.1427 51.6171V43.3426C23.1432 42.9117 23.3142 42.4986 23.6182 42.1939C23.9223 41.8892 24.3345 41.7178 24.7644 41.7173H45.6014C46.0314 41.7178 46.4436 41.8892 46.7476 42.1939C47.0517 42.4986 47.2227 42.9117 47.2232 43.3426V51.6171C47.2227 52.0481 47.0517 52.4612 46.7477 52.7659C46.4436 53.0706 46.0314 53.242 45.6014 53.2425Z" fill="#388A98"/>
</g>
<defs>
<clipPath id="clip0_697_3133">
<rect width="83" height="64.2076" fill="white"/>
</clipPath>
</defs>
</svg>
