<svg width="66" height="67" viewBox="0 0 66 67" fill="none" xmlns="http://www.w3.org/2000/svg">
<g clip-path="url(#clip0_697_3194)">
<path d="M14.9546 44.0271C14.8817 44.0271 14.8092 44.0157 14.7397 43.9934C14.6518 43.9656 14.5703 43.9206 14.4999 43.8612C14.4295 43.8017 14.3716 43.7288 14.3295 43.6468L13.6515 42.3316C13.5664 42.1662 13.5504 41.9737 13.6071 41.7965C13.6637 41.6193 13.7883 41.4718 13.9536 41.3863L24.9151 35.7349C25.0806 35.6498 25.273 35.6338 25.4502 35.6905C25.6275 35.7471 25.775 35.8718 25.8604 36.037L26.5385 37.3522C26.6236 37.5176 26.6395 37.7101 26.5829 37.8873C26.5262 38.0646 26.4016 38.2121 26.2363 38.2975L15.2749 43.949C15.1759 44.0002 15.0661 44.027 14.9546 44.0271Z" fill="#0C7384"/>
<path d="M18.9308 38.9032C18.9602 38.9437 18.9852 38.9872 19.0054 39.0329L20.1636 41.5624C20.201 41.6467 20.2213 41.7376 20.2235 41.8298C20.2257 41.922 20.2097 42.0137 20.1765 42.0997C20.1432 42.1857 20.0933 42.2643 20.0296 42.331C19.966 42.3977 19.8898 42.4512 19.8054 42.4884L15.9097 43.8501C15.5045 43.9915 15.0615 43.9794 14.6647 43.816C14.2678 43.6527 13.9447 43.3494 13.7566 42.9636L13.8016 42.9417L13.7566 42.9636C13.5597 42.56 13.5253 42.0961 13.6607 41.6679C13.796 41.2397 14.0907 40.8798 14.4838 40.6626L18.076 38.6764C18.2229 38.6106 18.3879 38.5972 18.5435 38.6385C18.6991 38.6798 18.8359 38.7732 18.9308 38.9032V38.9032Z" fill="#2F2E41"/>
<path d="M64.804 32.2817H46.0375C45.6103 32.2804 45.1981 32.1247 44.8767 31.8433L37.1469 25.0258C36.8815 24.7914 36.5396 24.6622 36.1856 24.6624H29.5147V1.65419C29.5152 1.21562 29.6896 0.795159 29.9997 0.485047C30.3098 0.174934 30.7303 0.000495668 31.1689 0H63.1498C63.5884 0.000495403 64.0088 0.174934 64.3189 0.485047C64.629 0.79516 64.8035 1.21562 64.804 1.65419L64.804 32.2817Z" fill="#E6E6E6"/>
<path d="M37.1841 10.6771C39.122 10.6771 40.693 9.10608 40.693 7.16818C40.693 5.23028 39.122 3.6593 37.1841 3.6593C35.2462 3.6593 33.6752 5.23028 33.6752 7.16818C33.6752 9.10608 35.2462 10.6771 37.1841 10.6771Z" fill="white"/>
<path d="M50.8186 5.28833H44.3021C44.1824 5.28833 44.0677 5.33586 43.9831 5.42047C43.8985 5.50507 43.851 5.61982 43.851 5.73947C43.851 5.85912 43.8985 5.97387 43.9831 6.05848C44.0677 6.14308 44.1824 6.19061 44.3021 6.19061H50.8186C50.9382 6.19061 51.053 6.14308 51.1376 6.05848C51.2222 5.97387 51.2697 5.85912 51.2697 5.73947C51.2697 5.61982 51.2222 5.50507 51.1376 5.42047C51.053 5.33586 50.9382 5.28833 50.8186 5.28833Z" fill="white"/>
<path d="M60.2785 8.14563H44.2159C44.0144 8.14563 43.851 8.34814 43.851 8.59677C43.851 8.8454 44.0144 9.04791 44.2159 9.04791H60.2785C60.48 9.04791 60.6434 8.8454 60.6434 8.59677C60.6434 8.34814 60.48 8.14563 60.2785 8.14563Z" fill="white"/>
<path d="M59.0163 14.1859H35.3023C35.1098 14.1859 34.9534 14.3884 34.9534 14.6371C34.9534 14.8857 35.1098 15.0882 35.3023 15.0882H59.0163C59.2088 15.0882 59.3652 14.8857 59.3652 14.6371C59.3652 14.3884 59.2088 14.1859 59.0163 14.1859Z" fill="white"/>
<path d="M59.0163 16.993H35.3023C35.1098 16.993 34.9534 17.1956 34.9534 17.4442C34.9534 17.6928 35.1098 17.8953 35.3023 17.8953H59.0163C59.2088 17.8953 59.3652 17.6928 59.3652 17.4442C59.3652 17.1956 59.2088 16.993 59.0163 16.993Z" fill="white"/>
<path d="M59.0163 19.8H35.3023C35.1098 19.8 34.9534 20.0026 34.9534 20.2512C34.9534 20.4998 35.1098 20.7023 35.3023 20.7023H59.0163C59.2088 20.7023 59.3652 20.4998 59.3652 20.2512C59.3652 20.0026 59.2088 19.8 59.0163 19.8Z" fill="white"/>
<path d="M59.0163 22.6072H35.3023C35.1098 22.6072 34.9534 22.8097 34.9534 23.0583C34.9534 23.3069 35.1098 23.5095 35.3023 23.5095H59.0163C59.2088 23.5095 59.3652 23.3069 59.3652 23.0583C59.3652 22.8097 59.2088 22.6072 59.0163 22.6072Z" fill="white"/>
<path d="M80.3433 32.2817H46.0375C45.696 32.2823 45.3618 32.1824 45.0766 31.9947L45.054 31.9798V8.57167C45.0545 8.1331 45.2289 7.71264 45.539 7.40253C45.8491 7.09241 46.2696 6.91798 46.7082 6.91748H78.6891C79.1277 6.91798 79.5481 7.09241 79.8582 7.40253C80.1683 7.71264 80.3428 8.1331 80.3433 8.57167L80.3433 32.2817Z" fill="#0C7384"/>
<path d="M52.7234 17.5945C54.6613 17.5945 56.2323 16.0236 56.2323 14.0857C56.2323 12.1478 54.6613 10.5768 52.7234 10.5768C50.7855 10.5768 49.2145 12.1478 49.2145 14.0857C49.2145 16.0236 50.7855 17.5945 52.7234 17.5945Z" fill="white"/>
<path d="M66.3579 12.2059H59.8414C59.7218 12.2059 59.607 12.2535 59.5224 12.3381C59.4378 12.4227 59.3903 12.5374 59.3903 12.6571C59.3903 12.7767 59.4378 12.8915 59.5224 12.9761C59.607 13.0607 59.7218 13.1082 59.8414 13.1082H66.3579C66.4775 13.1082 66.5923 13.0607 66.6769 12.9761C66.7615 12.8915 66.809 12.7767 66.809 12.6571C66.809 12.5374 66.7615 12.4227 66.6769 12.3381C66.5923 12.2535 66.4775 12.2059 66.3579 12.2059Z" fill="white"/>
<path d="M75.8178 15.0631H59.7552C59.5537 15.0631 59.3903 15.2656 59.3903 15.5143C59.3903 15.7629 59.5537 15.9654 59.7552 15.9654H75.8178C76.0193 15.9654 76.1827 15.7629 76.1827 15.5143C76.1827 15.2656 76.0193 15.0631 75.8178 15.0631Z" fill="white"/>
<path d="M74.5556 21.1034H50.8416C50.6492 21.1034 50.4928 21.3059 50.4928 21.5545C50.4928 21.8032 50.6492 22.0057 50.8416 22.0057H74.5556C74.7481 22.0057 74.9045 21.8032 74.9045 21.5545C74.9045 21.3059 74.7481 21.1034 74.5556 21.1034Z" fill="white"/>
<path d="M74.5556 23.9105H50.8416C50.6492 23.9105 50.4928 24.113 50.4928 24.3617C50.4928 24.6103 50.6492 24.8128 50.8416 24.8128H74.5556C74.7481 24.8128 74.9045 24.6103 74.9045 24.3617C74.9045 24.113 74.7481 23.9105 74.5556 23.9105Z" fill="white"/>
<path d="M74.5556 26.7177H50.8416C50.6492 26.7177 50.4928 26.9202 50.4928 27.1688C50.4928 27.4174 50.6492 27.6199 50.8416 27.6199H74.5556C74.7481 27.6199 74.9045 27.4174 74.9045 27.1688C74.9045 26.9202 74.7481 26.7177 74.5556 26.7177Z" fill="white"/>
<path d="M74.5556 29.5247H50.8416C50.6492 29.5247 50.4928 29.7272 50.4928 29.9758C50.4928 30.2244 50.6492 30.4269 50.8416 30.4269H74.5556C74.7481 30.4269 74.9045 30.2244 74.9045 29.9758C74.9045 29.7272 74.7481 29.5247 74.5556 29.5247Z" fill="white"/>
<path d="M81.2957 32.031H46.0375C45.6986 32.0314 45.3695 31.9169 45.1041 31.7062C45.0831 31.6902 45.063 31.6731 45.043 31.6551L42.0584 29.0234L37.3124 24.8378C37.0013 24.5631 36.6006 24.4116 36.1855 24.4117H27.5597C27.1079 24.4124 26.6748 24.5921 26.3553 24.9116C26.0358 25.2311 25.856 25.6642 25.8554 26.1161V65.1147C25.856 65.5665 26.0358 65.9997 26.3553 66.3192C26.6748 66.6386 27.1079 66.8184 27.5597 66.819H81.2957C81.7475 66.8184 82.1806 66.6386 82.5001 66.3192C82.8196 65.9997 82.9994 65.5665 83 65.1147V33.7353C82.9994 33.2835 82.8196 32.8504 82.5001 32.5309C82.1806 32.2114 81.7475 32.0317 81.2957 32.031ZM82.7995 65.1147C82.799 65.5134 82.6404 65.8956 82.3585 66.1775C82.0766 66.4595 81.6944 66.6181 81.2957 66.6185H27.5597C27.161 66.6181 26.7788 66.4595 26.4969 66.1775C26.215 65.8956 26.0564 65.5134 26.0559 65.1147V26.1161C26.0564 25.7174 26.215 25.3352 26.4969 25.0532C26.7788 24.7713 27.161 24.6127 27.5597 24.6123H36.1855C36.5518 24.612 36.9056 24.7457 37.1801 24.9882L41.7556 29.0234L44.9096 31.8055C45.2218 32.079 45.6224 32.2303 46.0375 32.2315H81.2957C81.6944 32.232 82.0766 32.3906 82.3585 32.6725C82.6404 32.9544 82.799 33.3366 82.7995 33.7353V65.1147Z" fill="#3F3D56"/>
<path d="M10.3516 38.0554C13.3149 38.0554 15.7171 35.6532 15.7171 32.69C15.7171 29.7267 13.3149 27.3245 10.3516 27.3245C7.3883 27.3245 4.98608 29.7267 4.98608 32.69C4.98608 35.6532 7.3883 38.0554 10.3516 38.0554Z" fill="#0C7384"/>
<path d="M10.3082 66.7607H8.82852C8.64246 66.7605 8.46408 66.6865 8.33252 66.5549C8.20095 66.4233 8.12695 66.2449 8.12674 66.0589V53.7263C8.12695 53.5403 8.20095 53.3619 8.33252 53.2303C8.46408 53.0987 8.64246 53.0247 8.82852 53.0245H10.3082C10.4942 53.0247 10.6726 53.0987 10.8042 53.2303C10.9358 53.3619 11.0098 53.5403 11.01 53.7263V66.0589C11.0098 66.2449 10.9358 66.4233 10.8042 66.5549C10.6726 66.6865 10.4942 66.7605 10.3082 66.7607Z" fill="#0C7384"/>
<path d="M13.5163 66.7607H12.0366C11.8506 66.7605 11.6722 66.6865 11.5406 66.5549C11.4091 66.4233 11.335 66.2449 11.3348 66.0589V53.7263C11.335 53.5403 11.4091 53.3619 11.5406 53.2303C11.6722 53.0987 11.8506 53.0247 12.0366 53.0245H13.5163C13.7023 53.0247 13.8807 53.0987 14.0123 53.2303C14.1439 53.3619 14.2179 53.5403 14.2181 53.7263V66.0589C14.2179 66.2449 14.1439 66.4233 14.0123 66.5549C13.8807 66.6865 13.7023 66.7605 13.5163 66.7607Z" fill="#0C7384"/>
<path d="M18.8895 50.9959C18.8895 55.3701 14.775 56.781 10.4009 56.781C6.02674 56.781 3.04944 55.3701 3.04944 50.9959C3.04944 46.6218 5.99384 39.166 10.368 39.166C14.7421 39.166 18.8895 46.6218 18.8895 50.9959Z" fill="#2F2E41"/>
<path d="M10.2388 34.6786L10.2332 34.4781C10.6063 34.4677 10.9351 34.4443 11.1822 34.2638C11.2523 34.2097 11.3099 34.1411 11.3511 34.0628C11.3923 33.9845 11.4161 33.8982 11.421 33.8098C11.4253 33.7558 11.4171 33.7015 11.3971 33.6512C11.377 33.6009 11.3457 33.5558 11.3054 33.5196C11.1414 33.3811 10.8774 33.4259 10.685 33.5141L10.5191 33.5902L10.8373 31.2653L11.0359 31.2925L10.7653 33.2701C11.0267 33.1933 11.2689 33.2264 11.4348 33.3665C11.4985 33.4221 11.5485 33.4917 11.5809 33.5698C11.6132 33.6479 11.6271 33.7325 11.6213 33.8168C11.6155 33.9356 11.5837 34.0516 11.5283 34.1568C11.4729 34.262 11.3951 34.3537 11.3005 34.4257C10.983 34.6577 10.5704 34.6693 10.2388 34.6786Z" fill="#2F2E41"/>
<path d="M13.0982 31.463H12.0183V31.6635H13.0982V31.463Z" fill="#2F2E41"/>
<path d="M9.68959 31.463H8.60971V31.6635H9.68959V31.463Z" fill="#2F2E41"/>
<path d="M69.967 59.9015H40.4925C40.0938 59.9011 39.7115 59.7425 39.4296 59.4606C39.1477 59.1787 38.9891 58.7964 38.9886 58.3977V42.1566C38.9891 41.7579 39.1477 41.3757 39.4296 41.0938C39.7115 40.8119 40.0938 40.6533 40.4925 40.6528H69.967C70.3657 40.6533 70.748 40.8119 71.0299 41.0938C71.3118 41.3757 71.4704 41.7579 71.4708 42.1566V58.3977C71.4704 58.7964 71.3118 59.1787 71.0299 59.4606C70.748 59.7425 70.3657 59.9011 69.967 59.9015ZM40.4925 40.8533C40.1469 40.8537 39.8156 40.9912 39.5713 41.2355C39.327 41.4798 39.1896 41.8111 39.1892 42.1566V58.3977C39.1896 58.7433 39.327 59.0745 39.5713 59.3189C39.8156 59.5632 40.1469 59.7006 40.4925 59.701H69.967C70.3126 59.7006 70.6438 59.5632 70.8882 59.3189C71.1325 59.0745 71.2699 58.7433 71.2703 58.3977V42.1566C71.2699 41.8111 71.1325 41.4798 70.8882 41.2355C70.6438 40.9912 70.3126 40.8537 69.967 40.8533H40.4925Z" fill="#E6E6E6"/>
<path d="M45.2545 50.1769C47.1924 50.1769 48.7634 48.606 48.7634 46.6681C48.7634 44.7302 47.1924 43.1592 45.2545 43.1592C43.3166 43.1592 41.7456 44.7302 41.7456 46.6681C41.7456 48.606 43.3166 50.1769 45.2545 50.1769Z" fill="#E6E6E6"/>
<path d="M58.889 44.7883H52.3725C52.2528 44.7883 52.1381 44.8359 52.0535 44.9205C51.9689 45.0051 51.9214 45.1198 51.9214 45.2395C51.9214 45.3591 51.9689 45.4739 52.0535 45.5585C52.1381 45.6431 52.2528 45.6906 52.3725 45.6906H58.889C59.0086 45.6906 59.1234 45.6431 59.208 45.5585C59.2926 45.4739 59.3401 45.3591 59.3401 45.2395C59.3401 45.1198 59.2926 45.0051 59.208 44.9205C59.1234 44.8359 59.0086 44.7883 58.889 44.7883Z" fill="#E6E6E6"/>
<path d="M68.3489 47.6455H52.2863C52.0848 47.6455 51.9214 47.848 51.9214 48.0966C51.9214 48.3453 52.0848 48.5478 52.2863 48.5478H68.3489C68.5504 48.5478 68.7138 48.3453 68.7138 48.0966C68.7138 47.848 68.5504 47.6455 68.3489 47.6455Z" fill="#E6E6E6"/>
<path d="M67.0867 53.6858H43.3727C43.1803 53.6858 43.0239 53.8883 43.0239 54.1369C43.0239 54.3856 43.1803 54.5881 43.3727 54.5881H67.0867C67.2792 54.5881 67.4356 54.3856 67.4356 54.1369C67.4356 53.8883 67.2792 53.6858 67.0867 53.6858Z" fill="#E6E6E6"/>
<path d="M67.0867 56.4929H43.3727C43.1803 56.4929 43.0239 56.6954 43.0239 56.9441C43.0239 57.1927 43.1803 57.3952 43.3727 57.3952H67.0867C67.2792 57.3952 67.4356 57.1927 67.4356 56.9441C67.4356 56.6954 67.2792 56.4929 67.0867 56.4929Z" fill="#E6E6E6"/>
<path d="M6.06945 31.2157C6.48674 30.5876 7.221 30.3213 7.94505 30.2565C8.76003 30.1836 9.5475 30.3408 10.3432 30.4935C11.2189 30.6615 12.1457 30.8187 13.0281 30.6063C13.4184 30.516 13.7832 30.3382 14.0948 30.0865C14.4065 29.8347 14.6569 29.5154 14.8273 29.1528C15.1503 28.4453 15.2199 27.6481 15.0244 26.8953C14.8176 26.0946 14.3044 25.3901 13.6822 24.858C12.4123 23.772 10.6938 23.2839 9.04094 23.3299C7.39432 23.3724 5.80283 23.932 4.49197 24.9294C3.17893 25.9628 2.25494 27.4107 1.87085 29.0369C1.4692 30.6498 1.60004 32.3492 2.24383 33.8816C2.60552 34.7206 3.12863 35.4771 3.53229 36.295C3.90811 37.0566 4.19755 37.942 3.96371 38.7914C3.75852 39.5368 3.15609 40.199 2.3998 40.4013C1.67946 40.5941 0.96821 40.2781 0.573513 39.6558C0.195446 39.0596 0.1864 38.2788 0.754048 37.7974C0.89717 37.674 1.06389 37.5811 1.24407 37.5242C1.42424 37.4672 1.61412 37.4476 1.80214 37.4663C1.99016 37.4851 2.1724 37.5419 2.33777 37.6333C2.50315 37.7247 2.64821 37.8488 2.76413 37.998C2.99443 38.2971 3.09751 38.6749 3.05103 39.0496C3.02306 39.2389 3.31282 39.3206 3.34105 39.1295C3.40879 38.7333 3.33367 38.326 3.12909 37.98C2.9245 37.634 2.60373 37.3719 2.22392 37.2404C1.84412 37.1089 1.42996 37.1165 1.05522 37.2618C0.680487 37.4071 0.369524 37.6808 0.177735 38.034C-0.164586 38.6776 0.0201155 39.454 0.454661 40.0041C0.678863 40.2972 0.982747 40.5194 1.32995 40.6443C1.67716 40.7691 2.05298 40.7913 2.41247 40.7081C3.20346 40.5255 3.85053 39.8968 4.15483 39.158C4.49361 38.3355 4.33839 37.4177 4.00814 36.6197C3.65114 35.7569 3.12101 34.9832 2.70177 34.1518C2.32217 33.4006 2.08061 32.5872 1.9886 31.7505C1.80446 30.0703 2.18579 28.3767 3.07228 26.9376C3.97584 25.5208 5.35499 24.4726 6.96197 23.9814C8.54651 23.484 10.2941 23.4992 11.8456 24.1105C13.3738 24.7127 14.8495 26.0249 14.8318 27.7874C14.8242 28.5402 14.5448 29.308 13.9681 29.8101C13.2789 30.4102 12.3194 30.4615 11.453 30.3679C10.5812 30.2736 9.73461 30.019 8.85903 29.9541C8.09745 29.8976 7.27583 29.9563 6.59584 30.3347C6.27917 30.5113 6.00958 30.7614 5.80975 31.0639C5.70235 31.2256 5.96273 31.3764 6.06945 31.2157L6.06945 31.2157Z" fill="#2F2E41"/>
<path d="M4.52377 56.3634C4.48828 56.3633 4.45285 56.3606 4.41777 56.3553L2.95495 56.1326C2.77105 56.1044 2.60584 56.0044 2.49557 55.8546C2.3853 55.7047 2.33898 55.5172 2.36677 55.3333L4.22252 43.1411C4.25072 42.9572 4.35072 42.792 4.50058 42.6817C4.65044 42.5715 4.83792 42.5251 5.02189 42.5529L6.48472 42.7756C6.66863 42.8038 6.83384 42.9038 6.94411 43.0536C7.05438 43.2035 7.1007 43.391 7.0729 43.5749L5.21715 55.7671C5.19169 55.9329 5.10781 56.0841 4.98066 56.1934C4.85351 56.3027 4.69146 56.363 4.52377 56.3634Z" fill="#0C7384"/>
<path d="M6.27187 48.0542C6.22185 48.0541 6.17197 48.0488 6.12308 48.0382L3.39568 47.4894C3.30551 47.4701 3.22004 47.4332 3.14415 47.3808C3.06825 47.3284 3.00343 47.2616 2.95338 47.1841C2.90333 47.1067 2.86904 47.0201 2.85246 46.9294C2.83589 46.8387 2.83735 46.7456 2.85678 46.6555L4.04374 42.703C4.16733 42.292 4.4374 41.9407 4.80276 41.7155C5.16813 41.4904 5.60339 41.4071 6.02605 41.4815L6.01735 41.5308L6.02605 41.4815C6.46837 41.5593 6.86391 41.804 7.13093 42.1651C7.39795 42.5263 7.51605 42.9761 7.46081 43.4218L6.95762 47.4956C6.92455 47.6532 6.8384 47.7946 6.71359 47.8963C6.58877 47.9979 6.43284 48.0537 6.27186 48.0542H6.27187Z" fill="#2F2E41"/>
<path d="M19.2343 66.819H3.49451C3.46792 66.819 3.44242 66.8085 3.42362 66.7897C3.40482 66.7709 3.39426 66.7454 3.39426 66.7188C3.39426 66.6922 3.40482 66.6667 3.42362 66.6479C3.44242 66.6291 3.46792 66.6185 3.49451 66.6185H19.2343C19.2609 66.6185 19.2864 66.6291 19.3052 66.6479C19.324 66.6667 19.3346 66.6922 19.3346 66.7188C19.3346 66.7454 19.324 66.7709 19.3052 66.7897C19.2864 66.8085 19.2609 66.819 19.2343 66.819Z" fill="#3F3D56"/>
</g>
<defs>
<clipPath id="clip0_697_3194">
<rect width="83" height="66.8191" fill="white"/>
</clipPath>
</defs>
</svg>
