<svg width="83" height="72" viewBox="0 0 83 72" fill="none" xmlns="http://www.w3.org/2000/svg">
<g clip-path="url(#clip0_697_3174)">
<path d="M58.6557 71.8739H56.7662C56.5456 71.8736 56.3341 71.7864 56.1781 71.6312C56.0221 71.4761 55.9344 71.2658 55.9341 71.0464V55.3855C55.9344 55.1661 56.0221 54.9558 56.1781 54.8006C56.3341 54.6455 56.5456 54.5582 56.7662 54.558H58.6557C58.8763 54.5582 59.0878 54.6455 59.2438 54.8006C59.3998 54.9558 59.4875 55.1661 59.4878 55.3855V71.0464C59.4875 71.2658 59.3998 71.4761 59.2438 71.6312C59.0878 71.7864 58.8763 71.8736 58.6557 71.8739Z" fill="#F9F6F6"/>
<path d="M54.9186 71.8739H53.0292C52.8086 71.8736 52.5971 71.7864 52.4411 71.6312C52.2851 71.4761 52.1974 71.2658 52.1971 71.0464V55.3855C52.1974 55.1661 52.2851 54.9558 52.4411 54.8006C52.5971 54.6455 52.8086 54.5582 53.0292 54.558H54.9186C55.1393 54.5582 55.3508 54.6455 55.5067 54.8006C55.6627 54.9558 55.7505 55.1661 55.7507 55.3855V71.0464C55.7505 71.2658 55.6627 71.4761 55.5067 71.6312C55.3507 71.7864 55.1393 71.8736 54.9186 71.8739Z" fill="#F9F6F6"/>
<path d="M49.9357 56.5996C49.9357 56.5996 49.2218 62.9834 56.4285 62.7666C63.6351 62.5498 60.8313 56.2771 60.8313 56.2771C60.8313 56.2771 59.3252 55.1001 55.5183 56.2384C51.7114 57.3768 49.9357 56.5996 49.9357 56.5996Z" fill="#2F2E41"/>
<path d="M53.1231 45.6718C52.7752 45.672 52.435 45.5701 52.1452 45.3788L39.801 37.2539C39.6172 37.1326 39.4892 36.9438 39.4452 36.7288C39.4013 36.5138 39.4448 36.2902 39.5664 36.1071L40.6092 34.5403C40.6695 34.4496 40.7471 34.3717 40.8377 34.3109C40.9283 34.2502 41.0301 34.2077 41.1371 34.1861C41.2442 34.1644 41.3545 34.1639 41.4618 34.1846C41.5691 34.2054 41.6712 34.2469 41.7623 34.3069L54.1065 42.4318C54.4251 42.6414 54.6673 42.9476 54.7971 43.305C54.927 43.6624 54.9374 44.0519 54.827 44.4157C54.7166 44.7794 54.4912 45.0981 54.1843 45.3244C53.8773 45.5507 53.5052 45.6725 53.1231 45.6718Z" fill="#F9F6F6"/>
<path d="M55.3645 38.2142C58.9702 38.2142 61.8932 35.3073 61.8932 31.7214C61.8932 28.1356 58.9702 25.2286 55.3645 25.2286C51.7587 25.2286 48.8357 28.1356 48.8357 31.7214C48.8357 35.3073 51.7587 38.2142 55.3645 38.2142Z" fill="#F9F6F6"/>
<path d="M56.0372 34.447C55.614 34.4353 55.0873 34.4207 54.6815 34.1259C54.5607 34.0345 54.4614 33.918 54.3907 33.7844C54.3199 33.6509 54.2794 33.5036 54.2719 33.3528C54.2645 33.2456 54.2822 33.1382 54.3235 33.039C54.3649 32.9398 54.4287 32.8514 54.51 32.7808C54.722 32.6027 55.0314 32.5609 55.3649 32.6584L55.0194 30.1471L55.2731 30.1125L55.6793 33.0649L55.4675 32.9682C55.2219 32.8562 54.8848 32.7992 54.6753 32.9752C54.6239 33.0212 54.5838 33.0784 54.5582 33.1424C54.5326 33.2063 54.5222 33.2752 54.5277 33.3438C54.5339 33.4561 54.5644 33.5656 54.617 33.6651C54.6696 33.7646 54.7431 33.8516 54.8326 33.9203C55.1483 34.1497 55.5682 34.1792 56.0443 34.1925L56.0372 34.447Z" fill="#2F2E41"/>
<path d="M53.765 30.3636H52.386V30.6183H53.765V30.3636Z" fill="#2F2E41"/>
<path d="M58.1175 30.3636H56.7386V30.6183H58.1175V30.3636Z" fill="#2F2E41"/>
<path d="M61.8688 57.9446C61.8688 57.9446 62.4325 38.8845 54.5407 40.1925C46.649 41.5006 49.9372 59.9067 49.9372 59.9067C49.9372 59.9067 51.6283 63.2702 55.7621 59.5329C59.8958 55.7957 61.8688 57.9446 61.8688 57.9446Z" fill="#AFC9CD"/>
<path d="M41.3197 55.4312C41.159 55.4313 41.0018 55.3852 40.8668 55.2985C40.7319 55.2118 40.6251 55.0881 40.5592 54.9424L39.7858 53.228C39.7411 53.1288 39.7164 53.0219 39.7133 52.9133C39.7101 52.8046 39.7285 52.6964 39.7674 52.5949C39.8062 52.4933 39.8648 52.4004 39.9398 52.3213C40.0148 52.2423 40.1048 52.1787 40.2045 52.1343L53.7106 46.1088C53.9235 46.0138 54.1531 45.9614 54.3863 45.9547C54.6196 45.948 54.8519 45.987 55.0699 46.0696C55.288 46.1521 55.4876 46.2766 55.6573 46.4358C55.827 46.5951 55.9635 46.786 56.059 46.9977C56.1545 47.2094 56.2071 47.4378 56.2139 47.6697C56.2206 47.9017 56.1814 48.1327 56.0984 48.3496C56.0154 48.5664 55.8902 48.7649 55.7301 48.9337C55.57 49.1024 55.378 49.2382 55.1651 49.3332L41.659 55.3587C41.5523 55.4065 41.4366 55.4312 41.3197 55.4312Z" fill="#F9F6F6"/>
<path d="M58.9564 26.2374C57.6861 25.3796 56.0827 25.9623 54.8484 26.5744C53.6496 27.169 52.2988 27.9254 50.9424 27.3528C50.4126 27.1291 49.9821 26.6917 49.9072 26.1064C49.8181 25.4091 50.2421 24.7564 50.7136 24.2824C51.226 23.7947 51.823 23.4034 52.4757 23.1274C53.1156 22.8411 53.7896 22.6373 54.4814 22.5209C55.8519 22.2854 57.259 22.379 58.5857 22.7938C59.9124 23.2086 61.1203 23.9326 62.1087 24.9056C63.0649 25.8754 63.8036 27.0357 64.2764 28.31C64.7491 29.5843 64.9451 30.9437 64.8514 32.2987C64.7436 33.7431 64.2797 35.2159 63.3491 36.3497C62.476 37.4135 61.1686 38.1614 59.7733 38.2239C59.4314 38.2398 59.0888 38.2121 58.754 38.1415C58.5129 38.0904 58.4099 38.4585 58.6519 38.5098C60.1052 38.818 61.6107 38.3601 62.7633 37.4584C63.9767 36.5093 64.7212 35.0723 65.0476 33.5918C65.6723 30.7585 64.8897 27.7094 63.0965 25.4412C62.211 24.3114 61.0639 23.4112 59.753 22.8174C58.3992 22.2163 56.9203 21.9464 55.44 22.0304C53.9638 22.1041 52.5317 22.5554 51.2822 23.3405C50.1646 24.0588 48.9049 25.5816 49.8164 26.9288C50.1573 27.4326 50.7232 27.7395 51.3106 27.8656C51.9848 27.996 52.6822 27.9356 53.3235 27.6912C54.7837 27.1784 56.1342 26.0327 57.7686 26.2063C58.1248 26.2431 58.4663 26.367 58.7626 26.5671C58.9676 26.7056 59.1599 26.3748 58.9564 26.2374L58.9564 26.2374Z" fill="#2F2E41"/>
<path d="M36.6644 49.558C36.5901 49.5579 36.5168 49.5412 36.4499 49.5093C36.3829 49.4774 36.324 49.431 36.2773 49.3735L34.1541 46.7927H3.11887C2.81341 46.7924 2.52056 46.6715 2.30457 46.4567C2.08858 46.2419 1.96709 45.9507 1.96674 45.6469V27.3144C1.96709 27.0106 2.08858 26.7194 2.30457 26.5046C2.52056 26.2898 2.81341 26.1689 3.11887 26.1686H36.0186C36.3241 26.1689 36.6169 26.2898 36.8329 26.5046C37.0489 26.7194 37.1704 27.0106 37.1708 27.3144V49.0563C37.1715 49.1598 37.1397 49.261 37.0798 49.3455C37.0198 49.4301 36.9347 49.4939 36.8365 49.528C36.7813 49.5478 36.7231 49.5579 36.6644 49.558ZM3.11887 26.4232C2.88129 26.4235 2.65352 26.5174 2.48552 26.6845C2.31753 26.8516 2.22303 27.0781 2.22277 27.3144V45.6469C2.22303 45.8832 2.31753 46.1097 2.48552 46.2768C2.65352 46.4439 2.88129 46.5378 3.11887 46.5381H34.2755L36.4755 49.2123C36.5078 49.2516 36.5516 49.28 36.6008 49.2936C36.65 49.3072 36.7023 49.3053 36.7504 49.2882C36.7985 49.2712 36.8401 49.2397 36.8695 49.1982C36.8989 49.1567 36.9147 49.1071 36.9147 49.0563V27.3144C36.9145 27.0781 36.82 26.8516 36.652 26.6845C36.484 26.5174 36.2562 26.4235 36.0186 26.4232H3.11887Z" fill="white"/>
<path d="M32.3062 32.2794H6.8313C6.66154 32.2794 6.49873 32.2124 6.37869 32.093C6.25866 31.9736 6.19122 31.8117 6.19122 31.6429C6.19122 31.4741 6.25866 31.3122 6.37869 31.1928C6.49873 31.0734 6.66154 31.0063 6.8313 31.0063H32.3062C32.476 31.0063 32.6388 31.0734 32.7588 31.1928C32.8788 31.3122 32.9463 31.4741 32.9463 31.6429C32.9463 31.8117 32.8788 31.9736 32.7588 32.093C32.6388 32.2124 32.476 32.2794 32.3062 32.2794Z" fill="#CCCCCC"/>
<path d="M32.3062 36.4806H6.8313C6.66154 36.4806 6.49873 36.4135 6.37869 36.2942C6.25866 36.1748 6.19122 36.0129 6.19122 35.8441C6.19122 35.6752 6.25866 35.5133 6.37869 35.394C6.49873 35.2746 6.66154 35.2075 6.8313 35.2075H32.3062C32.476 35.2075 32.6388 35.2746 32.7588 35.394C32.8788 35.5133 32.9463 35.6752 32.9463 35.8441C32.9463 36.0129 32.8788 36.1748 32.7588 36.2942C32.6388 36.4135 32.476 36.4806 32.3062 36.4806Z" fill="#CCCCCC"/>
<path d="M32.3062 40.6819H6.8313C6.66154 40.6819 6.49873 40.6148 6.37869 40.4955C6.25866 40.3761 6.19122 40.2142 6.19122 40.0454C6.19122 39.8765 6.25866 39.7146 6.37869 39.5953C6.49873 39.4759 6.66154 39.4088 6.8313 39.4088H32.3062C32.476 39.4088 32.6388 39.4759 32.7588 39.5953C32.8788 39.7146 32.9463 39.8765 32.9463 40.0454C32.9463 40.2142 32.8788 40.3761 32.7588 40.4955C32.6388 40.6148 32.476 40.6819 32.3062 40.6819Z" fill="#CCCCCC"/>
<path d="M80.8238 72H32.0502C32.0162 72 31.9837 71.9866 31.9597 71.9627C31.9357 71.9388 31.9222 71.9064 31.9222 71.8727C31.9222 71.8389 31.9357 71.8065 31.9597 71.7827C31.9837 71.7588 32.0162 71.7454 32.0502 71.7454H80.8238C80.8577 71.7454 80.8903 71.7588 80.9143 71.7827C80.9383 71.8065 80.9518 71.8389 80.9518 71.8727C80.9518 71.9064 80.9383 71.9388 80.9143 71.9627C80.8903 71.9866 80.8577 72 80.8238 72Z" fill="white"/>
</g>
<defs>
<clipPath id="clip0_697_3174">
<rect width="83" height="72" fill="white"/>
</clipPath>
</defs>
</svg>
